Coordinates
version=1
nRows=13
nColumns=34
inDegrees=yes

Units are S.I. units (second, meters, Newtons, ...)
If the header above contains a line with 'inDegrees', this indicates whether rotational values are in degrees (yes) or radians (no).

endheader
time	pelvis_tilt	pelvis_list	pelvis_rotation	pelvis_tx	pelvis_ty	pelvis_tz	hip_flexion_r	hip_adduction_r	hip_rotation_r	knee_angle_r	ankle_angle_r	subtalar_angle_r	mtp_angle_r	hip_flexion_l	hip_adduction_l	hip_rotation_l	knee_angle_l	ankle_angle_l	subtalar_angle_l	mtp_angle_l	lumbar_extension	lumbar_bending	lumbar_rotation	arm_flex_r	arm_add_r	arm_rot_r	elbow_flex_r	pro_sup_r	arm_flex_l	arm_add_l	arm_rot_l	elbow_flex_l	pro_sup_l
      1.41666670	     -2.10405460	      1.87617362	     -1.20163620	      1.79698511	      0.96565659	     -0.09746001	     -0.80883496	     -3.24287534	      1.79433108	      0.00000000	      1.58062119	    -24.78849932	      0.00000000	     -1.36944209	     -3.26182548	     -3.95267880	      0.00000000	      2.66878711	     -4.45322852	      0.00000000	     -5.10499806	      0.86673786	      0.70877907	      8.52878429	    -10.52242859	     38.79280804	     81.32365701	     86.79140465	      5.02992788	    -10.37510794	     33.97267370	     77.67643460	     89.65377853
      1.43333330	     -2.08753062	      1.84287884	     -1.18375812	      1.79695938	      0.96547022	     -0.09838440	     -0.84764140	     -3.19359429	      1.79271429	      0.00000000	      1.54249803	    -24.74126630	      0.00000000	     -1.38843560	     -3.31747826	     -4.00253996	      0.00000000	      2.59228639	     -4.42731803	      0.00000000	     -5.06248545	      0.81420776	      0.69049929	      8.56095860	    -10.39222836	     38.77799032	     81.41879893	     86.75785031	      5.00389708	    -10.33474885	     33.98164915	     77.69210077	     89.64252660
      1.45000000	     -2.08416064	      1.84275594	     -1.18601794	      1.79700982	      0.96481354	     -0.09856576	     -0.85098427	     -3.19440236	      1.79215395	      0.00000000	      1.54215020	    -24.74088920	      0.00000000	     -1.38411178	     -3.31844165	     -4.00311165	      0.00000000	      2.59170755	     -4.42695398	      0.00000000	     -5.06301689	      0.81426985	      0.69013732	      8.56105676	    -10.39084225	     38.77786732	     81.41977326	     86.75740393	      5.00408220	    -10.33457935	     33.98159382	     77.69234025	     89.64236642
      1.46666670	     -2.07640382	      1.81330531	     -1.19087490	      1.79585148	      0.96403303	     -0.09951817	     -0.86714269	     -3.22176432	      1.78838960	      0.00000000	      1.54102664	    -24.73977064	      0.00000000	     -1.36551445	     -3.32123177	     -4.00952599	      0.00000000	      2.59047523	     -4.42717567	      0.00000000	     -5.05932160	      0.81301660	      0.68924688	      8.56375859	    -10.37790777	     38.77822879	     81.42824889	     86.75503417	      5.00585575	    -10.33034898	     33.98273907	     77.69657310	     89.64157764
      1.48333330	     -2.07393519	      1.84814467	     -1.09985891	      1.79581379	      0.96415328	     -0.10004306	     -0.87520215	     -3.31298660	      1.72485820	      0.00000000	      1.52084625	    -24.72250525	      0.00000000	     -1.31652778	     -3.25106099	     -4.13092830	      0.00000000	      2.57242944	     -4.44614245	      0.00000000	     -5.02146946	      0.87064902	      0.62600868	      8.69347383	    -10.19746927	     38.75304341	     81.58004004	     86.71636327	      5.11934044	    -10.14398829	     34.02225521	     77.82109683	     89.63065250
      1.50000000	     -2.06625142	      1.83530961	     -1.10095470	      1.79611697	      0.96415657	     -0.09977680	     -0.87297046	     -3.32160999	      1.72420047	      0.00000000	      1.52075092	    -24.72244631	      0.00000000	     -1.31105362	     -3.24905732	     -4.13071841	      0.00000000	      2.57211432	     -4.44568216	      0.00000000	     -5.02203688	      0.86997281	      0.62513504	      8.69421029	    -10.19699908	     38.75266736	     81.58105945	     86.71600211	      5.11983198	    -10.14325503	     34.02261616	     77.82189053	     89.63054741
      1.51666670	     -2.08392672	      1.84542397	     -1.17737148	      1.79627495	      0.96461999	     -0.10035915	     -0.82499404	     -3.39348149	      1.65716767	      0.00000000	      1.50677323	    -24.70967515	      0.00000000	     -1.29547188	     -3.21205219	     -4.14732537	      0.00000000	      2.54568274	     -4.41472822	      0.00000000	     -5.04802340	      0.85545387	      0.52914214	      8.79083057	    -10.14823915	     38.70388243	     81.70022021	     86.67611152	      5.17056048	    -10.02239223	     34.07979635	     77.93179967	     89.62009488
      1.53333330	     -2.07862589	      1.84600101	     -1.06867269	      1.79642131	      0.96441130	     -0.10090706	     -0.86015221	     -3.42852781	      1.66476316	      0.00000000	      1.49094887	    -24.68314139	      0.00000000	     -1.25985159	     -3.19124264	     -4.16825429	      0.00000000	      2.53922200	     -4.40688258	      0.00000000	     -5.06383078	      0.85796356	      0.54463943	      8.81664977	    -10.12785477	     38.69355458	     81.74979193	     86.65576609	      5.14401271	    -10.02060818	     34.10276662	     77.97151315	     89.61410600
      1.55000000	     -2.07158697	      1.82925239	     -1.08065206	      1.79599698	      0.96473350	     -0.10109916	     -0.85900655	     -3.44325823	      1.65985926	      0.00000000	      1.49087571	    -24.68267257	      0.00000000	     -1.25369795	     -3.18244324	     -4.16602063	      0.00000000	      2.53852042	     -4.40361193	      0.00000000	     -5.06423868	      0.85832928	      0.53905618	      8.81321700	    -10.12583577	     38.69374587	     81.75577604	     86.65304532	      5.14504548	    -10.01885805	     34.10581242	     77.97850548	     89.61330879
      1.56666670	     -2.06364317	      1.87121477	     -1.12197706	      1.79579242	      0.96419604	     -0.10162813	     -0.85286440	     -3.54029823	      1.62243206	      0.00000000	      1.47420311	    -24.65809759	      0.00000000	     -1.26792654	     -3.09722219	     -4.13786968	      0.00000000	      2.53599790	     -4.36568894	      0.00000000	     -5.07937392	      0.91526443	      0.48933630	      8.77781177	    -10.08815125	     38.70554775	     81.83846980	     86.61855689	      5.15259245	     -9.97846035	     34.15327466	     78.07796386	     89.60360446
      1.58333330	     -2.05746579	      1.85271469	     -1.11562067	      1.79572056	      0.96491884	     -0.10183205	     -0.84992068	     -3.55054318	      1.62138354	      0.00000000	      1.47373309	    -24.65673799	      0.00000000	     -1.26205784	     -3.09068565	     -4.13734372	      0.00000000	      2.53753680	     -4.36444745	      0.00000000	     -5.08052399	      0.91170424	      0.49191051	      8.77776546	    -10.08581114	     38.70626593	     81.84308544	     86.61653957	      5.14981304	     -9.98006255	     34.15539125	     78.08235548	     89.60298558
      1.60000000	     -2.06315401	      1.84158903	     -1.10147834	      1.79651757	      0.96430315	     -0.10164255	     -0.85300094	     -3.55930914	      1.62213036	      0.00000000	      1.47166235	    -24.65333199	      0.00000000	     -1.26447298	     -3.08446324	     -4.13760180	      0.00000000	      2.54064980	     -4.36414241	      0.00000000	     -5.08660039	      0.91080777	      0.49447684	      8.77570144	    -10.08406593	     38.70755586	     81.84686672	     86.61398306	      5.14809947	     -9.98482691	     34.15675758	     78.08629450	     89.60214702
      1.61666670	     -2.06881605	      1.83987364	     -1.09973157	      1.79653237	      0.96573298	     -0.10173403	     -0.85376358	     -3.56100066	      1.62219303	      0.00000000	      1.47153639	    -24.65307949	      0.00000000	     -1.26426536	     -3.08383503	     -4.13795452	      0.00000000	      2.54163688	     -4.36455767	      0.00000000	     -5.08649873	      0.91048736	      0.49489437	      8.77483438	    -10.08371927	     38.70786891	     81.84746838	     86.61359188	      5.14783279	     -9.98618626	     34.15677262	     78.08692508	     89.60201350
